# xmcd
#
# Track frame offsets:
#	150
#	14886
#	34675
#	60399
#
# Disc length: 1377 seconds
#
# Revision: 3
# Processed by: cddbd v1.5.2PL0 Copyright (c) Steve Scherf et al.
# Submitted via: EasyCDDAExtractor 15.3.0.1
#
DISCID=2d055f04
DTITLE=Mariah Carey - Get Your Number
DYEAR=2005
DGENRE=Pop
TTITLE0=Get Your Number
TTITLE1=We Belong Together (atlantic soul radio edit)
TTITLE2=Secret Love
TTITLE3=Get Your Number (video)
EXTD=YEAR: 2005
EXTT0=
EXTT1=
EXTT2=
EXTT3=
PLAYORDER=
